<?xml version="1.0" encoding="UTF-8"?>
<!DOCTYPE svg PUBLIC "-//W3C//DTD SVG 1.1//EN" "http://www.w3.org/Graphics/SVG/1.1/DTD/svg11.dtd">
<!-- Creator: CorelDRAW 2019 (64-Bit Evaluation Version) -->
<svg xmlns="http://www.w3.org/2000/svg" xml:space="preserve" width="2.34966in" height="2.05705in" version="1.1" style="shape-rendering:geometricPrecision; text-rendering:geometricPrecision; image-rendering:optimizeQuality; fill-rule:evenodd; clip-rule:evenodd"
viewBox="0 0 244.25 213.83"
 xmlns:xlink="http://www.w3.org/1999/xlink">
 <defs>
  <style type="text/css">
   <![CDATA[
    .fil2 {fill:none}
    .fil0 {fill:#2C2B33}
    .fil1 {fill:#B0B1D8}
   ]]>
  </style>
 </defs>
 <g id="Layer_x0020_1">
  <metadata id="CorelCorpID_0Corel-Layer"/>
  <path class="fil0" d="M47.66 186.4c16.92,2.01 24.75,1.35 43.46,8.84 10.68,4.27 16.63,7.34 25.6,13.21 2.18,1.42 5.95,4.55 7.94,5.38 2.28,-1.09 5.26,-3.63 7.57,-5.14 14.24,-9.29 29.03,-15.83 46.18,-19.38 8.38,-1.74 14.65,-1.91 23.18,-2.98 7.89,-18.02 13.66,-28.96 23.96,-44.86l7 -10.22c1.43,-1.93 2.07,-2.09 2.49,-3.99 -28.77,-1.9 -65.37,11.35 -88.62,26.79l-16.2 12.49c-1.48,1.29 -3.42,3.41 -5.55,4.76 -0.3,-0.19 -14.67,-12.41 -21.33,-17.01 -22.18,-15.33 -61.23,-29.11 -89.04,-27.01 0.38,1.87 7.95,11.84 9.21,13.85 3.2,5.08 5.94,9.18 8.74,14.09 4.91,8.6 12.21,21.72 15.41,31.17z"/>
  <path class="fil1" d="M-0 158.57c11.61,12.04 22.59,24.16 30.62,39.73 1.1,2.13 2.37,5.06 3.58,6.67 10.95,0.32 17.2,-1.49 33.84,-0.23 12.72,0.96 27.01,4.42 31.3,4.69 -12.07,-9.98 -41.19,-15.56 -58.49,-15.59 -3.34,-8 -9.62,-20.9 -14.27,-28.33 -1.52,-2.44 -4.75,-6.99 -5.6,-9.14 -6.66,-0.12 -14.98,0.68 -20.98,2.19z"/>
  <path class="fil1" d="M203.35 193.83c-11.76,0.11 -22.01,1.41 -32.48,4.43 -7.32,2.11 -21.8,7.04 -25.97,11.22 6.2,-0.52 14.27,-2.79 21.27,-3.72 17.52,-2.33 26.92,-1.47 43.85,-0.79 2.02,-2.69 5.03,-9.32 7.09,-12.71 10.35,-17.08 14.41,-19.72 27.13,-33.7 -5.62,-1.54 -14.75,-2.29 -20.98,-2.17 -0.96,2.3 -3.71,6.1 -5.32,8.76 -6.31,10.46 -9.49,17.43 -14.6,28.68z"/>
  <g id="_2002491585008">
   <path class="fil1" d="M106.17 151.16c3.64,1.48 4.57,1 8.85,1.22 1.23,5.28 3.7,9.44 9.77,9.46 5.87,0.01 7.87,-3.88 9.42,-7.49l0.77 -1.68c2.62,-0.92 12.23,0.73 8.9,-7.33 -1.77,-4.28 -9.65,-2.81 -14.11,-2.8 -17.86,0.02 -27.8,-2.66 -23.61,8.62z"/>
   <path class="fil1" d="M109.26 115.78c-4.47,1.36 -9.77,9.54 7.21,9.42 4.13,-0.03 22.11,0.51 24.62,-0.38 2.98,-1.05 4.41,-4.78 2.31,-7.43 -3.07,-3.87 -34.14,-1.61 -34.14,-1.61z"/>
   <path class="fil1" d="M107.54 130.18c-4.75,3.22 -1.44,7.15 0.15,7.91 2.18,1.05 32.59,1.15 34.75,-0.33 2.75,-1.87 2.23,-6.78 -0.62,-8.11 -1.38,-0.64 -30.84,-1.81 -34.29,0.52z"/>
  </g>
  <g id="_2002491594800">
   <path class="fil1" d="M55.96 92.37c1.23,9.65 8.51,21.4 15.23,26.92 17.07,-0.04 31.73,-13.61 46.44,-16.23l0 -22.2c-5.82,1.35 -12.76,5.13 -26.54,11 -4.98,2.12 -10.75,5.21 -17,5.56 -9.07,0.52 -11.32,-3.11 -18.12,-5.05zm68.7 10.36c16.09,1.47 33.47,17.3 48.89,17.04 5.5,-3.69 13.43,-17.06 15.05,-24.63 -18.61,2.94 -9.84,7.36 -33.7,-3.1 -16.23,-7.11 -23.95,-10.84 -30.25,-11.6l0 22.28z"/>
   <path class="fil2" d="M179.31 29.49c0.4,12.45 -36.02,-9.08 -54.64,-14.07m-7.04 -0.95c-13.11,1.25 -49.46,26.97 -54.22,14.63"/>
   <path class="fil1" d="M63.52 29.37c5.18,11.7 41.09,-13.65 54.11,-14.9l0 -14.47c-22.26,1.09 -41.83,12.41 -54.11,29.37zm61.15 -13.95c18.31,4.9 53.79,25.79 54.63,14.68 -12.23,-17.36 -32.05,-29 -54.63,-30.1l0 15.42z"/>
   <path class="fil1" d="M154.34 92.05c-15.74,-6.9 -23.48,-10.62 -29.68,-11.53l0 22.26c6.04,0.68 12.26,3.32 18.48,6.33 2.84,-1.82 5.53,-3.98 7.99,-6.5l0.03 -0.04c2.68,-2.75 4.94,-5.76 6.78,-8.95l-3.6 -1.57zm-36.72 -11.32c-5.94,1.23 -12.88,5.06 -27.11,11.12 -2.82,1.2 -5.89,2.71 -9.17,3.86 1.77,2.71 3.86,5.28 6.28,7.64l0.04 0.03c3.04,2.96 6.38,5.4 9.94,7.34 6.81,-3.38 13.4,-6.71 20.02,-7.76l0 -22.23zm-43.92 16.67l-0.19 0.01c-9.07,0.52 -11.32,-3.11 -18.12,-5.05 1.23,9.65 8.51,21.4 15.23,26.92 6.66,-0.02 12.95,-2.09 19.02,-4.77 -2.51,-1.71 -4.91,-3.66 -7.16,-5.86l-0.04 -0.03c-3.49,-3.42 -6.4,-7.2 -8.72,-11.23zm77 15.44c7.38,3.62 14.68,6.83 21.58,6.93 6.59,-6.99 11.79,-15.32 15.13,-24.53 -14.38,2.38 -11.72,5.57 -22.61,1.26 -2.22,4.02 -5.01,7.81 -8.37,11.25l-0.03 0.04c-1.8,1.84 -3.71,3.52 -5.7,5.04z"/>
   <path class="fil1" d="M52.26 68.4c5.26,3.94 10.09,6.11 14.62,7.04 -0.1,-1.2 -0.15,-2.39 -0.17,-3.59 -0.08,-6.53 1.06,-13.08 3.41,-19.27 -5.3,-0.39 -8.98,-2.22 -13.56,-3.36 -1.56,2.03 -2.66,4.42 -3.38,7.01 -0.41,1.93 -0.74,3.89 -0.99,5.88 -0.15,2.07 -0.12,4.19 0.06,6.29zm22.08 7.53c15.16,-1.12 27.51,-14.43 43.29,-16.37l0 -23.01c-5.79,1.12 -13.07,4.27 -25.37,9.8 -4.55,2.04 -8.38,4.55 -13.86,5.68 -2.95,6.23 -4.38,12.99 -4.3,19.73 0.02,1.39 0.1,2.78 0.24,4.16zm50.33 -16.25c8.53,1.69 24.28,9.06 30.76,12.06 2.95,1.37 5.7,2.56 8.31,3.5 0.14,-1.51 0.2,-3.03 0.18,-4.55 -0.08,-7.13 -1.86,-14.25 -5.32,-20.69l-3.65 -1.58c-16.14,-7.02 -23.25,-11.37 -30.29,-12.19l0 23.46zm46.31 17.45c6.64,0.94 12.74,-0.8 19.66,-7.24 0.43,-8.55 -1.12,-12.61 -3.05,-19.85 -11.24,3.48 -13.2,5.44 -19.27,3.73 1.92,5.44 2.91,11.13 2.98,16.84 0.03,2.18 -0.09,4.36 -0.33,6.53z"/>
   <path class="fil2" d="M87.74 133.86c15.12,-4.81 22.95,-7.41 29.88,-7.79m7.04 0.38c6.36,1.02 13.75,3.85 26.83,8.49"/>
   <path class="fil1" d="M117.63 127.01c-1.02,0.07 -2.06,0.2 -3.14,0.38 -5.59,0.9 -12.34,3.11 -23.09,6.62 8.03,3.75 16.89,6 26.23,6.41l0 -13.41zm7.04 13.37c8.37,-0.47 16.35,-2.42 23.67,-5.6 -11.24,-4.11 -17.86,-6.6 -23.67,-7.49l0 13.09z"/>
  </g>
 </g>
</svg>
