<?xml version="1.0" encoding="UTF-8"?>
<!DOCTYPE svg PUBLIC "-//W3C//DTD SVG 1.1//EN" "http://www.w3.org/Graphics/SVG/1.1/DTD/svg11.dtd">
<!-- Creator: CorelDRAW 2019 (64-Bit Evaluation Version) -->
<svg xmlns="http://www.w3.org/2000/svg" xml:space="preserve" width="4.30666in" height="3.5153in" version="1.1" style="shape-rendering:geometricPrecision; text-rendering:geometricPrecision; image-rendering:optimizeQuality; fill-rule:evenodd; clip-rule:evenodd"
viewBox="0 0 44834.35 36595.89"
 xmlns:xlink="http://www.w3.org/1999/xlink">
 <defs>
  <style type="text/css">
   <![CDATA[
    .str0 {stroke:#B1B0D8;stroke-width:347.03;stroke-miterlimit:2.61313}
    .str1 {stroke:#B1B1D8;stroke-width:138.82;stroke-miterlimit:2.61313}
    .str2 {stroke:white;stroke-width:277.6;stroke-miterlimit:2.61313}
    .fil3 {fill:none}
    .fil0 {fill:black}
    .fil8 {fill:#B1B0D8}
    .fil5 {fill:#B1B1D8}
    .fil6 {fill:white}
    .fil2 {fill:black;fill-rule:nonzero}
    .fil7 {fill:#B1B0D8;fill-rule:nonzero}
    .fil4 {fill:#B1B1D8;fill-rule:nonzero}
    .fil1 {fill:white;fill-rule:nonzero}
   ]]>
  </style>
 </defs>
 <g id="Layer_x0020_1">
  <metadata id="CorelCorpID_0Corel-Layer"/>
  <path class="fil0" d="M28341.82 10342.31l-523.52 136.69c-1435.83,506.3 -1842.49,1136.91 -3594.28,1125.15 -1575.3,-10.53 -3156.63,-4.02 -4732.18,-1.23 -272.72,-353.42 -1547.35,-2918.62 -2400.07,-3796.83 -319.36,-328.95 -620.2,-445.52 -972.15,-646.84l-151.24 -88.86c-127.79,-83.12 -157.1,-110.09 -211.32,-160.21 828.82,-678.77 1647.56,-1795.36 1496.94,-3510.26 2388.06,-123.08 1574.15,-2673.03 675,-3013.18 -824.85,-312.07 -1194.83,68.24 -1672.23,18.61 -496.92,-51.68 -375.39,-572.17 -1191.96,-350.8 -514.79,139.64 -792.14,432.98 -1118.06,735.21 -566.14,524.87 -647.21,121.97 -1210.16,636.92 -329.24,301.21 -535.89,718.2 -616.02,1267.45 -1521.53,-99.15 -1875.57,1045.97 -1041.05,2004.26 401.79,461.34 743.08,267.19 1039.41,807.75 144.89,264.28 133.16,352.93 315.59,609.67 174.03,244.93 325.22,377.2 464.04,563.48 -1523.86,586.59 -2821.07,359.94 -4431.26,3177.61 -285.51,499.54 -554.01,1228.39 -865.54,1754.98 -1359.18,-49.68 -2789.68,-6.07 -4157.3,-7.62 -2880.22,-3.32 -2399.7,41.56 -2397.52,5925.98 0.57,1729.9 -137.88,2414.29 1738.22,2393.18l-20.74 1725.23c-1594.89,-37.91 -1718.67,543.64 -1719.9,2000.2 -1.27,1551.86 154.27,1951.84 1739,1949.55l-8.53 10061.68c-12.09,708.24 -130.09,982.89 554.05,929.24 343.75,-479.33 187.31,-9642.6 171.28,-10934.4l17899.83 -56.27c163.62,3586.65 77.42,5296.64 1514.89,8335.88l1054.78 -183.33 7.38 1940 8127.18 4.71 -382.11 -392.57c-616.27,-466.67 -873.13,-169.11 -1472.06,-921.53 -404.78,184.4 -774.02,592.04 -1128.14,644.38 158.74,-394.33 662.87,-475.6 942.27,-851.69l-198.13 -400.76 -1287.41 516.63c216.08,-380.19 796.16,-540.2 1139.5,-753 -27.26,-72.09 -202.51,-513.23 -220.83,-611.14 -137.3,-733.12 248.66,281.04 -133.41,-2176.28 -138.12,-887.76 -485.4,-2452.08 -473.02,-3227.45 176.86,296.08 356.17,580.24 552.78,821.94l1232.62 -602.29 1232.25 2478.14 7322.33 -3413.04c-465.32,-295.88 -1551.94,-224.11 -2194.93,-311.7 -171.94,230.67 -145.05,234.03 -277.07,458.27 -194.27,330.1 -39.47,273.13 -395.15,395.11l517.82 -1073.51 -498.68 -223.58c-264.85,218.95 -631.72,798.9 -952.27,927.23 138,-550.28 260.96,-352.4 765.95,-1132.77 -1197.53,-1253.27 188.74,237.47 -760.05,-1519.4l-2979.9 -5565.75c-1245.12,-2140.79 -1000.39,-1860.24 -1000.02,-4694.02 0.41,-2887.8 -454.25,-2502.9 -3285.41,-2462.61l170.5 -1262.21zm-5600.14 3503.49l1017.77 1605.39c162.71,-848.41 265.34,-716.07 -21.85,-1384.02 20,-10 58.49,-35.25 65.21,-15.37 3.2,9.39 230.83,149.64 280.8,-421.46 -730.33,-165.13 -776.89,-52.18 -1341.93,215.46zm8416.99 2554.87l-24.88 -1934.18 -2473.96 -1.15c1070.35,352.4 1734.86,1183.6 2498.84,1935.32zm-11182.61 -3543.99c1708.26,-0.45 2944.89,250.47 4495.81,550.98l284.36 -1519.44 -5117.44 9.22 337.27 959.24zm-18638.68 10026.64l6870.91 1.19 -343.71 -941.25 -5573.87 -0.9c-678.61,45.74 -845.34,288.54 -953.34,940.96zm30.37 1186.22l7946.1 -7.5c-1134.09,-1238.6 -1377.99,-885.79 -3445.25,-885.91 -1506.4,-0.04 -3023.1,17.42 -4528.11,-2.42l27.26 895.83zm2140.21 -2457.69l4270.71 27.3 -188.78 -1705.35c-845.42,-10.33 -3426.19,-109.6 -4094.8,61.19l12.87 1616.86zm24018.81 -7455.58l3616.53 9.55c50.21,-828.53 180.91,-1845.89 -465.03,-2162.63 -412.2,-202.14 -2062.3,-127.88 -2617.37,-88.98l-534.13 2242.06zm-8764.68 3057.52c1023.67,-214.64 689.59,-312.89 1149.95,-848.29 1149.17,-39.92 830.95,860.22 1929.54,402.61 106.81,-680.7 -743.04,-1580.63 -1039.12,-1879.13 770.62,106.6 1153.31,1411.07 1342.5,1805.15 1639.65,205.59 77.79,-1878.56 -143.53,-2332.15 589.3,359.04 826.28,992.15 999.65,1623.75 151.32,551.02 -45.33,418.51 413.59,512.24 121.52,-208 325.02,-2832.92 -2773,-2746.11 -411.34,11.52 -868.17,33.61 -1276.31,61.4 -659.88,44.88 -719.68,22.17 -781.73,714.14 -83.65,932.6 89.35,1800.89 178.45,2686.39zm-17426.03 -336.66l5381.27 -4.06 59.92 -2401.75 -5379.92 -5.78 -61.27 2411.58zm33.81 -2714.55l5515.3 3.2 601.51 -2269.81c-1385.78,1.43 -2772.22,3.11 -4157.8,-0.53 -1998.48,-5.29 -2155.26,92.96 -1959.01,2267.15zm-27.67 3713.92c-1.02,2117.38 476.55,1759.17 2448.55,1760.72 1234.75,0.98 2570.77,48.86 3793.47,-18.32 -16.11,-777.18 -135.01,-680.37 -424.7,-1188.72 -251.12,-440.68 -261.78,-916.16 -482.94,-1252.49l-5336.35 -13.77 1.97 712.58zm11798.76 -13930.61c-453.68,-258.58 -1.64,55.13 -319.77,-415.48 -654.88,-968.87 -2381.99,-611.47 -1717.07,683.44 276.78,538.93 532.66,438.92 985.68,731.85 224.19,144.97 1652.85,3646.25 3986.92,1206.84 628.93,-657.38 985.68,-1537.35 881.53,-2740.99 -980.35,-123.78 -2608.03,-1028.42 -3245.9,-313.05 -421.26,472.49 48.12,607.21 -571.39,847.39zm8268.74 21358.19l3.81 -933.13 -20046.35 -14.22c26.97,1337.17 2174.11,946.66 4270.51,946.66l15772.03 0.7zm2590.16 -7543c482.69,195.63 1206.67,140.38 1576.12,461.71 -192.8,170.22 -263.5,67.38 -489.21,230.92 601.59,2491.87 1018.05,3518.04 2167.76,5625.75 265.75,487.12 924.56,1228.31 845.79,1711.87 -519.74,-156.57 -1699.53,-2656.23 -2010.29,-3317.79 -590.86,-1258.07 -1009.69,-2698.03 -1349.71,-4189.15 -1705.51,-518.68 -3603.62,-125.95 -5398.45,-300.55 -136.36,-341.58 44.18,-260.22 -257.97,-561.92 -2696.27,1889.34 -7690.39,3144.09 -11192.57,1875.93 22.13,1391.23 190.09,2894.69 904.6,3844.17 798.04,1060.56 2019.8,943.01 3652.44,978.75 3103.59,68 6178.62,-36.35 9276.8,-62.01 -61.23,2190.3 44.02,5362.58 564.17,7522.31 211.94,880.18 533.11,1383.57 743.12,2013.77l6265.38 -1293.44 -175.46 -1220.77 -6524.38 994.36c330.06,-367.28 6002.79,-1241.02 6436.17,-1313.15l-705 -4591.47c120.66,88.37 100.25,63.53 205.05,199.32 260.3,337.07 580.08,1035.19 998.54,1544.52l5901.43 -2849.15 -562.62 -1185.93c-715.25,346 -5299.55,3105.52 -5788.55,2885.87 117.43,-298.26 -47.71,-57.79 200.67,-249.2l5442.63 -2873.13c-762.59,-1754 -1925.12,-3590.79 -2862.88,-5325.78 -1058.26,-1958.03 -1841.55,-3380.17 -4431.46,-3776.46 -188.13,822.71 -587.21,904.52 -1605.14,1708.67l-1827 1511.98z"/>
  <path class="fil1" d="M17765.6 13883.6c-273.99,393.22 -372.93,1009.04 -315.22,1637.23 61.85,673.24 303.54,1349.22 702.79,1774.33 -14.96,167.43 -116.11,260.71 -315.72,269.57 -463.18,-493.23 -741.77,-1257.25 -810.83,-2009.02 -54.31,-590.86 20.62,-1181.26 236.41,-1636.25l-4615.28 329.28 -713.9 104.8c-133.33,-125.5 -169.85,-258.05 -63.12,-401.17l534.58 -78.49 -105.62 -3679.49c141.24,-135.01 282.48,-122.79 423.76,-11.11l104.68 3645.96 5705.31 -406.99c161.57,109.31 183.86,242.06 31.56,404.33l-799.39 57.01z"/>
  <path class="fil1" d="M17077.32 9483.7l751.48 1784.78c-74.88,117.14 -143.33,90.21 -206.94,87.18l-751.48 -1784.78c48.69,-56.11 111.28,-93.74 206.94,-87.18z"/>
  <path class="fil2" d="M11639.57 3524.93c205.87,48.73 360.8,131.36 484.09,247.6 121.93,115.01 209.56,259.61 282.97,434.62 -1.76,137.84 -138.78,149.35 -208.17,87.3 -62.01,-147.88 -133.41,-267.56 -229.19,-357.85 -94.39,-89.02 -216.12,-153.04 -380.84,-192.02 -82.55,-88.57 -70.09,-162.51 51.15,-219.64z"/>
  <path class="fil2" d="M16103.65 4356.41c-8.77,268.58 -44.72,536.22 -102.1,802.18 -56.89,263.42 -135.91,528.8 -231.37,794.47 -111.36,36.44 -197.14,2.71 -260.26,-93.28 90.17,-250.92 165.42,-504.42 220.55,-759.72 54.55,-252.68 88.61,-504.01 96.69,-752.34 93.45,-73.61 185.5,-62.13 276.49,8.69z"/>
  <circle class="fil0" cx="14728.16" cy="4397.11" r="180.71"/>
  <path class="fil3 str0" d="M5550.87 6412.28c-1995.78,2498.92 -4499.05,-1658.87 -5385.99,1048.26"/>
  <path class="fil3 str0" d="M5863.19 7245.12c-1995.78,2498.92 -4499.05,-1658.87 -5385.99,1048.26"/>
  <path class="fil3 str0" d="M44227.67 19668.46c-3010.55,3769.49 -6786.6,-2502.33 -8124.51,1581.24"/>
  <path class="fil3 str0" d="M44698.77 21445.29c-3010.51,3769.49 -6786.6,-2502.33 -8124.51,1581.24"/>
  <path class="fil4" d="M5818.72 34193.24l939.93 2232.39c-93.65,146.48 -179.23,112.88 -258.83,109.02l-939.93 -2232.39c60.86,-70.17 139.19,-117.26 258.83,-109.02z"/>
  <polygon class="fil5" points="34499.66,17518.41 35254.25,18272.92 36008.77,19027.52 35254.25,19782.16 34499.66,20536.67 33745.02,19782.16 32990.51,19027.52 33745.02,18272.92 "/>
  <polygon class="fil6" points="26267.02,13018.05 26511.05,13262 26755,13506.03 26511.05,13750.06 26267.02,13994.01 26022.99,13750.06 25779.04,13506.03 26022.99,13262 "/>
  <path class="fil4" d="M7105.15 36594.87l-237.92 -1006.87c138.21,-167.8 229.15,-129.27 319.49,-124.88l267.43 1131.75 -349 0z"/>
  <path class="fil4" d="M636.88 36531.67l-467.32 -1006.87c100.01,-167.8 199.68,-129.27 291.04,-124.88l525.28 1131.75 -349 0z"/>
  <path class="fil7" d="M18460.76 4410.48l1137 -289.08c75.29,123.7 58.49,193.62 56.85,265.75l-1137 289.08c-36.11,-73.94 -60.54,-157.96 -56.85,-265.75z"/>
  <path class="fil7" d="M18330.67 5149.54l2168.62 -59.8c91.64,136.07 35.62,201.36 6.48,271.74l-2168.62 59.8c-38.65,-79.6 -52.38,-166.77 -6.48,-271.74z"/>
  <path class="fil7" d="M17726.95 6476.01l1861.59 980.47c33.85,218.99 -34.8,275.3 -82.34,351.25l-1861.59 -980.47c-7.09,-120.83 9.43,-239.19 82.34,-351.25z"/>
  <circle class="fil8" cx="24477.53" cy="655.49" r="578.36"/>
  <circle class="fil8" cx="26212.59" cy="655.49" r="578.36"/>
  <path class="fil7" d="M30047.58 4163.98l2145.99 -4.84c193.41,219.19 105.99,353.46 -14.06,496.79l-2145.99 4.88c-167.96,-154.48 -204.6,-316.17 14.06,-496.83z"/>
  <path class="fil7" d="M34146.56 4145.83l2145.75 -13.36c195.18,218.42 108.9,353.05 -9.96,496.87l-2145.75 13.4c-169.23,-153.82 -207.18,-315.39 9.96,-496.92z"/>
  <path class="fil7" d="M32714.26 4149.72l991.04 -12.5c195.83,221.33 156.77,355.84 -8.69,496.83l-991.04 12.5c-143.08,-144.64 -171.85,-304.44 8.69,-496.83z"/>
  <path class="fil7" d="M31421.23 4964.73l2145.99 -55.29c193.41,214.64 105.99,350.96 -14.06,497.16l-2145.99 55.29c-167.96,-150.54 -204.6,-311.37 14.06,-497.16z"/>
  <path class="fil7" d="M30003.15 4954.03l991.04 -12.5c195.83,221.33 156.77,355.84 -8.69,496.83l-991.04 12.5c-143.08,-144.64 -171.85,-304.44 8.69,-496.83z"/>
  <path class="fil3 str1" d="M21680.06 8887.68c437.24,0.45 3356.56,-353.96 3402.38,-179.56l1213.52 1699.37 0 -4512.16 -2465.19 335.92c-498.23,-896.16 -461.75,-1941.31 -802.02,-2887.76l-1348.69 5544.19z"/>
  <path class="fil3 str1" d="M27066.7 3084.57c160.42,115.09 1305.53,717.58 1286.19,810.71l92.79 1109 936.29 -2097.79 -974.61 -491.71c3.07,-547.62 233.33,-1023.92 304.85,-1553.37l-1645.51 2223.17z"/>
  <polygon class="fil0" points="6474.58,5138.06 6357.4,5655.35 6240.26,6172.63 5886.96,5900.28 5533.7,5627.93 6004.14,5382.99 "/>
  <rect class="fil0" x="23977.19" y="35795.31" width="8098.16" height="352.89"/>
  <rect class="fil0" transform="matrix(0.890248 -0.41557 0.347522 0.775953 31978.1 30296)" width="8157.47" height="414.9"/>
  <line class="fil3 str2" x1="21222" y1="17626.7" x2="19848.43" y2= "17590.55" />
 </g>
</svg>
