<svg width="1440" height="328" viewBox="0 0 1440 328" fill="none" xmlns="http://www.w3.org/2000/svg">
<path fill-rule="evenodd" clip-rule="evenodd" d="M601.087 0L431.959 16.9187L-23 64.3531V328C-23 328 224.683 286.633 383.32 144.33C469.899 66.6655 601.277 23.3376 702.767 0H601.087Z" fill="#6184D8"/>
<path fill-rule="evenodd" clip-rule="evenodd" d="M525.602 7.54562C714.005 33.0731 922.769 73.2222 1070.43 135.33C1408.76 277.633 1937 319 1937 319V55.3531L966.698 7.91875L797.872 0H597.209L597.269 0.619446L525.602 7.54562Z" fill="#004E89" fill-opacity="0.5"/>
<path fill-rule="evenodd" clip-rule="evenodd" d="M525.602 7.54562C714.005 33.0731 922.769 73.2222 1070.43 135.33C1408.76 277.633 1937 319 1937 319V55.3531L966.698 7.91875L797.872 0H597.209L597.269 0.619446L525.602 7.54562Z" fill="#004E89" fill-opacity="0.75"/>
</svg>
